<?xml version="1.0" encoding="UTF-8"?>
<!DOCTYPE svg PUBLIC "-//W3C//DTD SVG 1.1//EN" "http://www.w3.org/Graphics/SVG/1.1/DTD/svg11.dtd">
<svg xmlns="http://www.w3.org/2000/svg" version="1.1" width="255px" height="96px" style="shape-rendering:geometricPrecision; text-rendering:geometricPrecision; image-rendering:optimizeQuality; fill-rule:evenodd; clip-rule:evenodd" xmlns:xlink="http://www.w3.org/1999/xlink">
<g><path style="opacity:1" fill="#fcfdfd" d="M -0.5,-0.5 C 84.5,-0.5 169.5,-0.5 254.5,-0.5C 254.5,31.5 254.5,63.5 254.5,95.5C 169.5,95.5 84.5,95.5 -0.5,95.5C -0.5,63.5 -0.5,31.5 -0.5,-0.5 Z"/></g>
<g><path style="opacity:1" fill="#2e348a" d="M 37.5,5.5 C 63.8497,3.24029 81.0163,14.5736 89,39.5C 91.4209,63.8353 81.2542,80.3353 58.5,89C 37.9261,93.1203 21.7595,86.6203 10,69.5C -0.277071,48.3199 3.22293,29.8199 20.5,14C 25.9902,10.5882 31.6569,7.75485 37.5,5.5 Z"/></g>
<g><path style="opacity:1" fill="#757ab3" d="M 43.5,11.5 C 45.5,11.5 47.5,11.5 49.5,11.5C 49.5958,15.3107 50.2624,15.3107 51.5,11.5C 51.8333,11.8333 52.1667,12.1667 52.5,12.5C 51.4981,14.5101 50.4981,16.5101 49.5,18.5C 49.793,16.9526 49.293,15.2859 48,13.5C 46.9887,12.6634 45.8221,12.33 44.5,12.5C 43.9969,17.5 43.6636,17.1667 43.5,11.5 Z"/></g>
<g><path style="opacity:1" fill="#878cbd" d="M 53.5,11.5 C 55.7659,11.1412 57.5993,11.8078 59,13.5C 59.3333,13.1667 59.6667,12.8333 60,12.5C 60.1102,14.8483 61.2769,16.3483 63.5,17C 61.6332,17.7112 60.1332,17.2112 59,15.5C 58.6667,15.8333 58.3333,16.1667 58,16.5C 57.51,15.2068 57.3433,13.8734 57.5,12.5C 56.5,12.5 55.5,12.5 54.5,12.5C 53.9969,17.5 53.6636,17.1667 53.5,11.5 Z"/></g>
<g><path style="opacity:1" fill="#7b80b6" d="M 29.5,11.5 C 33.8383,11.6219 34.1716,11.9553 30.5,12.5C 30.1367,14.9115 31.1367,16.4115 33.5,17C 29.2716,17.2717 27.9383,15.4383 29.5,11.5 Z"/></g>
<g><path style="opacity:1" fill="#757bb3" d="M 34.5,13.5 C 35.5,13.5 36.5,13.5 37.5,13.5C 37.6932,17.449 38.1932,17.449 39,13.5C 41.0676,15.3755 40.7343,16.7089 38,17.5C 37.0546,17.0946 36.3879,16.428 36,15.5C 35.6667,16.1667 35.3333,16.8333 35,17.5C 34.51,16.2068 34.3433,14.8734 34.5,13.5 Z"/></g>
<g><path style="opacity:1" fill="#f8f8fb" d="M 77.5,71.5 C 77.5,70.1667 76.8333,69.5 75.5,69.5C 73.901,69.7678 72.5676,69.4345 71.5,68.5C 74.223,66.7961 76.5563,64.6295 78.5,62C 77.9056,61.5357 77.2389,61.369 76.5,61.5C 76.5,61.1667 76.5,60.8333 76.5,60.5C 79.6168,59.218 81.9501,57.0513 83.5,54C 82.1807,53.805 80.8474,53.9717 79.5,54.5C 78.8333,54.5 78.5,54.1667 78.5,53.5C 80.2636,50.7156 81.0969,47.7156 81,44.5C 80.1887,45.9597 79.3554,46.293 78.5,45.5C 80.4829,42.3974 81.3163,39.0641 81,35.5C 79.3308,36.8463 78.1642,38.513 77.5,40.5C 77.1667,40.5 76.8333,40.5 76.5,40.5C 76.6646,37.4816 76.498,34.4816 76,31.5C 75.3992,29.6412 74.5659,29.3079 73.5,30.5C 73.1667,30.5 72.8333,30.5 72.5,30.5C 72.5402,27.5755 71.7068,24.9088 70,22.5C 69.6012,22.7284 69.4346,23.0618 69.5,23.5C 68.8333,25.1667 68.1667,26.8333 67.5,28.5C 66.1599,24.7875 63.8266,22.7875 60.5,22.5C 61.6772,25.5315 63.3438,28.1981 65.5,30.5C 65.5,30.8333 65.5,31.1667 65.5,31.5C 64.5768,30.6971 63.5768,30.5304 62.5,31C 64.2659,34.4044 66.5992,37.2378 69.5,39.5C 69.5,39.8333 69.5,40.1667 69.5,40.5C 69.3502,44.1947 70.3502,47.528 72.5,50.5C 71.8333,50.5 71.5,50.8333 71.5,51.5C 69.7779,54.9196 69.1113,58.5863 69.5,62.5C 69.5,63.5 69.5,64.5 69.5,65.5C 69.5,66.1667 69.1667,66.5 68.5,66.5C 68.1667,66.5 67.8333,66.5 67.5,66.5C 67.4208,65.0695 67.7542,63.7362 68.5,62.5C 67.9984,61.479 67.3317,61.3123 66.5,62C 64.0976,64.6713 62.0976,67.5046 60.5,70.5C 59.9941,68.8946 59.3274,68.5613 58.5,69.5C 54.5555,71.388 50.7222,73.388 47,75.5C 45.8333,75.3333 44.6667,75.1667 43.5,75C 41.355,72.426 38.6883,70.5926 35.5,69.5C 34.479,70.0016 34.3123,70.6683 35,71.5C 36.1667,72.6667 37.3333,73.8333 38.5,75C 34.8794,74.5948 31.2128,74.5948 27.5,75C 26.376,75.2492 25.376,75.7492 24.5,76.5C 24.9569,77.2975 25.6236,77.6309 26.5,77.5C 28.5,78.1667 30.5,78.8333 32.5,79.5C 31.7109,79.7828 31.0442,80.2828 30.5,81C 31.7932,81.49 33.1266,81.6567 34.5,81.5C 34.5,82.5 34.5,83.5 34.5,84.5C 19.9138,79.7385 11.0804,69.7385 8,54.5C 5.8845,41.5159 9.3845,30.3492 18.5,21C 37.5,20.3333 56.5,20.3333 75.5,21C 89.3775,37.4321 90.0442,54.2654 77.5,71.5 Z"/></g>
<g><path style="opacity:1" fill="#363b8e" d="M 28.5,30.5 C 27.5041,30.4142 26.6708,30.7476 26,31.5C 25.5357,30.9056 25.369,30.2389 25.5,29.5C 26.473,25.8997 28.6397,23.2331 32,21.5C 32.6667,22.5 32.6667,23.5 32,24.5C 30.5787,26.4048 29.412,28.4048 28.5,30.5 Z"/></g>
<g><path style="opacity:1" fill="#3b3f91" d="M 67.5,28.5 C 68.8333,31.1667 68.1667,31.8333 65.5,30.5C 63.3438,28.1981 61.6772,25.5315 60.5,22.5C 63.8266,22.7875 66.1599,24.7875 67.5,28.5 Z"/></g>
<g><path style="opacity:1" fill="#3b4091" d="M 24.5,29.5 C 23.7656,30.8775 23.0989,32.3775 22.5,34C 20.9387,34.1881 20.272,33.3547 20.5,31.5C 20.5056,28.1498 21.5056,25.1498 23.5,22.5C 24.4742,24.7427 24.8076,27.076 24.5,29.5 Z"/></g>
<g><path style="opacity:1" fill="#2e348b" d="M 72.5,30.5 C 72.6602,32.1992 72.4935,33.8659 72,35.5C 69.7565,31.8691 68.9232,27.8691 69.5,23.5C 69.4346,23.0618 69.6012,22.7284 70,22.5C 71.7068,24.9088 72.5402,27.5755 72.5,30.5 Z"/></g>
<g><path style="opacity:1" fill="#7e84b8" d="M 162.5,27.5 C 163.312,26.0069 164.645,25.3402 166.5,25.5C 167.5,25.8333 168.5,26.1667 169.5,26.5C 167.37,26.2512 165.037,26.5845 162.5,27.5 Z"/></g>
<g><path style="opacity:1" fill="#7278b1" d="M 137.5,26.5 C 138.209,25.596 139.209,25.2627 140.5,25.5C 140.337,27.8568 140.503,30.1902 141,32.5C 141.654,31.3044 142.154,31.3044 142.5,32.5C 141.833,33.8333 140.833,34.8333 139.5,35.5C 138.833,32.3583 138.166,29.3583 137.5,26.5 Z"/></g>
<g><path style="opacity:1" fill="#7379b2" d="M 145.5,25.5 C 147.402,28.3373 148.069,31.6707 147.5,35.5C 146.448,35.6495 145.448,35.4828 144.5,35C 145.191,31.7852 145.525,28.6185 145.5,25.5 Z"/></g>
<g><path style="opacity:1" fill="#8083b8" d="M 170.5,26.5 C 174.311,25.3547 178.311,25.1881 182.5,26C 181.903,27.0617 181.57,28.2284 181.5,29.5C 181.777,31.4438 182.277,32.7772 183,33.5C 182.311,34.3567 181.478,35.0233 180.5,35.5C 179.679,32.5535 179.179,29.5535 179,26.5C 178.374,28.9913 177.541,28.9913 176.5,26.5C 175.516,29.4281 175.183,32.4281 175.5,35.5C 174.448,35.6495 173.448,35.4828 172.5,35C 173.444,32.2809 173.777,29.4475 173.5,26.5C 172.5,26.5 171.5,26.5 170.5,26.5 Z"/></g>
<g><path style="opacity:1" fill="#7b7db5" d="M 186.5,25.5 C 191.454,24.9426 194.121,25.2759 194.5,26.5C 194.223,29.4475 194.556,32.2809 195.5,35C 194.552,35.4828 193.552,35.6495 192.5,35.5C 192.817,32.4281 192.484,29.4281 191.5,26.5C 190.459,28.9913 189.626,28.9913 189,26.5C 188.223,29.4294 188.39,32.2628 189.5,35C 188.552,35.4828 187.552,35.6495 186.5,35.5C 186.172,32.0184 186.172,28.6851 186.5,25.5 Z"/></g>
<g><path style="opacity:1" fill="#7f85b9" d="M 204.5,31.5 C 205.138,29.54 205.138,27.7067 204.5,26C 205.5,25.3333 206.5,25.3333 207.5,26C 206.771,28.0581 205.771,29.8914 204.5,31.5 Z"/></g>
<g><path style="opacity:1" fill="#8383b9" d="M 208.5,26.5 C 211.024,25.1997 213.691,25.1997 216.5,26.5C 216.062,27.5063 215.396,27.5063 214.5,26.5C 213.516,29.4281 213.183,32.4281 213.5,35.5C 212.448,35.6495 211.448,35.4828 210.5,35C 211.444,32.2809 211.777,29.4475 211.5,26.5C 210.5,26.5 209.5,26.5 208.5,26.5 Z"/></g>
<g><path style="opacity:1" fill="#7978b3" d="M 156.5,25.5 C 157.873,25.3433 159.207,25.51 160.5,26C 158.242,28.7249 157.909,31.7249 159.5,35C 158.552,35.4828 157.552,35.6495 156.5,35.5C 156.5,33.8333 156.5,32.1667 156.5,30.5C 155.167,30.5 153.833,30.5 152.5,30.5C 152.286,32.1439 152.62,33.6439 153.5,35C 152.552,35.4828 151.552,35.6495 150.5,35.5C 149.89,30.6833 150.223,28.6833 151.5,29.5C 153.167,29.5 154.833,29.5 156.5,29.5C 156.5,28.1667 156.5,26.8333 156.5,25.5 Z"/></g>
<g><path style="opacity:1" fill="#565ca1" d="M 162.5,27.5 C 162.5,29.5 162.5,31.5 162.5,33.5C 159.833,31.5 159.833,29.5 162.5,27.5 Z"/></g>
<g><path style="opacity:1" fill="#363b8e" d="M 19.5,31.5 C 19.9051,35.0479 19.4051,38.3812 18,41.5C 17.7216,40.5842 17.2216,39.9175 16.5,39.5C 16.3359,36.8127 16.5026,34.146 17,31.5C 18.0712,28.8875 18.9045,28.8875 19.5,31.5 Z"/></g>
<g><path style="opacity:1" fill="#30368c" d="M 76.5,40.5 C 75.1751,41.9526 74.3418,41.6192 74,39.5C 73.502,36.5184 73.3354,33.5184 73.5,30.5C 74.5659,29.3079 75.3992,29.6412 76,31.5C 76.498,34.4816 76.6646,37.4816 76.5,40.5 Z"/></g>
<g><path style="opacity:1" fill="#33398d" d="M 29.5,32.5 C 28.5569,35.1092 26.8903,37.1092 24.5,38.5C 21.132,39.5976 20.632,38.5976 23,35.5C 24.7753,32.8468 26.942,31.8468 29.5,32.5 Z"/></g>
<g><path style="opacity:1" fill="#34398d" d="M 65.5,31.5 C 68.1666,33.1734 70.1666,35.5067 71.5,38.5C 71.0431,39.2975 70.3764,39.6309 69.5,39.5C 66.5992,37.2378 64.2659,34.4044 62.5,31C 63.5768,30.5304 64.5768,30.6971 65.5,31.5 Z"/></g>
<g><path style="opacity:1" fill="#6166a7" d="M 204.5,31.5 C 204.108,33.1789 203.608,34.8455 203,36.5C 202.08,32.7367 200.58,29.2367 198.5,26C 199.448,25.5172 200.448,25.3505 201.5,25.5C 201.031,28.3933 202.031,30.3933 204.5,31.5 Z"/></g>
<g><path style="opacity:1" fill="#5d63a5" d="M 162.5,33.5 C 169.411,34.7598 169.745,35.2598 163.5,35C 162.944,34.6174 162.611,34.1174 162.5,33.5 Z"/></g>
<g><path style="opacity:1" fill="#32398d" d="M 15.5,39.5 C 17.2185,41.9262 17.7185,44.5929 17,47.5C 15.9609,46.2899 14.7942,45.2899 13.5,44.5C 12.7369,41.8589 12.5702,39.1922 13,36.5C 14.045,37.3734 14.8783,38.3734 15.5,39.5 Z"/></g>
<g><path style="opacity:1" fill="#373c8f" d="M 78.5,53.5 C 77.5416,53.9528 76.7083,54.6195 76,55.5C 75.3826,52.9649 75.8826,50.6316 77.5,48.5C 76.1764,45.8023 76.1764,43.1357 77.5,40.5C 78.1642,38.513 79.3308,36.8463 81,35.5C 81.3163,39.0641 80.4829,42.3974 78.5,45.5C 79.3554,46.293 80.1887,45.9597 81,44.5C 81.0969,47.7156 80.2636,50.7156 78.5,53.5 Z"/></g>
<g><path style="opacity:1" fill="#9da2c9" d="M 44.5,40.5 C 41.8733,39.8951 39.2066,39.3951 36.5,39C 38.8333,38.3333 41.1667,38.3333 43.5,39C 44.056,39.3826 44.3893,39.8826 44.5,40.5 Z"/></g>
<g><path style="opacity:1" fill="#d3d4e6" d="M 69.5,23.5 C 68.9232,27.8691 69.7565,31.8691 72,35.5C 72.4935,33.8659 72.6602,32.1992 72.5,30.5C 72.8333,30.5 73.1667,30.5 73.5,30.5C 73.3354,33.5184 73.502,36.5184 74,39.5C 74.3418,41.6192 75.1751,41.9526 76.5,40.5C 76.8333,40.5 77.1667,40.5 77.5,40.5C 76.1764,43.1357 76.1764,45.8023 77.5,48.5C 75.8826,50.6316 75.3826,52.9649 76,55.5C 76.7083,54.6195 77.5416,53.9528 78.5,53.5C 78.5,54.1667 78.8333,54.5 79.5,54.5C 77.563,55.9314 75.7297,57.5981 74,59.5C 73.7929,61.7615 74.6262,62.0948 76.5,60.5C 76.5,60.8333 76.5,61.1667 76.5,61.5C 74.2088,62.765 71.8754,64.0983 69.5,65.5C 69.5,64.5 69.5,63.5 69.5,62.5C 70.7498,62.4226 71.5831,61.756 72,60.5C 72.8045,57.3035 72.6378,54.3035 71.5,51.5C 71.5,50.8333 71.8333,50.5 72.5,50.5C 73.1174,50.6107 73.6174,50.944 74,51.5C 75.2457,46.6635 73.7457,42.9968 69.5,40.5C 69.5,40.1667 69.5,39.8333 69.5,39.5C 70.3764,39.6309 71.0431,39.2975 71.5,38.5C 70.1666,35.5067 68.1666,33.1734 65.5,31.5C 65.5,31.1667 65.5,30.8333 65.5,30.5C 68.1667,31.8333 68.8333,31.1667 67.5,28.5C 68.1667,26.8333 68.8333,25.1667 69.5,23.5 Z"/></g>
<g><path style="opacity:1" fill="#31378c" d="M 23.5,42.5 C 22.9913,45.1922 21.9913,47.6922 20.5,50C 22.5497,51.6356 23.5497,53.8023 23.5,56.5C 23.6633,58.8568 23.4966,61.1902 23,63.5C 21.4087,58.7064 19.9087,53.873 18.5,49C 19.0803,45.6724 20.5803,42.8391 23,40.5C 23.4643,41.0944 23.631,41.7611 23.5,42.5 Z"/></g>
<g><path style="opacity:1" fill="#353a8e" d="M 69.5,40.5 C 73.7457,42.9968 75.2457,46.6635 74,51.5C 73.6174,50.944 73.1174,50.6107 72.5,50.5C 70.3502,47.528 69.3502,44.1947 69.5,40.5 Z"/></g>
<g><path style="opacity:1" fill="#a09fc9" d="M 125.5,44.5 C 125.158,43.6618 124.492,43.3284 123.5,43.5C 126.057,42.3604 129.39,42.1938 133.5,43C 132.201,46.1347 132.201,49.3013 133.5,52.5C 132.167,53.8333 130.833,53.8333 129.5,52.5C 130.393,49.9159 130.726,47.2492 130.5,44.5C 128.833,44.5 127.167,44.5 125.5,44.5 Z"/></g>
<g><path style="opacity:1" fill="#404293" d="M 188.5,44.5 C 188.5,45.5 188.5,46.5 188.5,47.5C 189.822,47.67 190.989,47.3366 192,46.5C 192.667,47.5 192.667,48.5 192,49.5C 190.989,48.6634 189.822,48.33 188.5,48.5C 188.5,49.5 188.5,50.5 188.5,51.5C 188.5,51.8333 188.5,52.1667 188.5,52.5C 188.167,52.5 187.833,52.5 187.5,52.5C 187.16,49.0275 187.493,46.3609 188.5,44.5 Z"/></g>
<g><path style="opacity:1" fill="#6a71ae" d="M 123.5,43.5 C 124.492,43.3284 125.158,43.6618 125.5,44.5C 125.813,47.2469 125.48,49.9135 124.5,52.5C 123.516,49.5719 123.183,46.5719 123.5,43.5 Z"/></g>
<g><path style="opacity:1" fill="#fcfcfd" d="M 137.5,51.5 C 135.72,50.0101 135.054,48.0101 135.5,45.5C 136.905,43.6211 138.572,43.2878 140.5,44.5C 141.474,46.7427 141.808,49.076 141.5,51.5C 140.167,51.5 138.833,51.5 137.5,51.5 Z"/></g>
<g><path style="opacity:1" fill="#9998c5" d="M 163.5,52.5 C 163.84,49.0275 163.507,46.3609 162.5,44.5C 161.957,44.44 161.624,44.1067 161.5,43.5C 164.106,42.3483 166.773,42.1816 169.5,43C 168.87,46.1292 168.204,49.2959 167.5,52.5C 166.833,49.5 166.167,46.5 165.5,43.5C 164.833,46.6417 164.166,49.6417 163.5,52.5 Z"/></g>
<g><path style="opacity:1" fill="#374191" d="M 173.5,44.5 C 173.5,43.8333 173.833,43.5 174.5,43.5C 175.167,43.5 175.5,43.8333 175.5,44.5C 175.806,47.3854 175.473,50.0521 174.5,52.5C 174.806,49.6146 174.473,46.9479 173.5,44.5 Z"/></g>
<g><path style="opacity:1" fill="#3c4493" d="M 182.5,44.5 C 181.683,46.9686 181.183,49.6353 181,52.5C 180.503,49.854 180.336,47.1873 180.5,44.5C 181.167,43.1667 181.833,43.1667 182.5,44.5 Z"/></g>
<g><path style="opacity:1" fill="#7676b1" d="M 212.5,42.5 C 213.873,42.3433 215.207,42.51 216.5,43C 215.62,44.3561 215.286,45.8561 215.5,47.5C 217.167,47.5 218.833,47.5 220.5,47.5C 221.833,47.8333 221.833,48.1667 220.5,48.5C 218.833,48.5 217.167,48.5 215.5,48.5C 215.762,49.9778 215.429,51.3112 214.5,52.5C 213.67,49.1792 213.003,45.8458 212.5,42.5 Z"/></g>
<g><path style="opacity:1" fill="#7c81b7" d="M 234.5,43.5 C 236.607,42.5318 238.941,42.1984 241.5,42.5C 241.649,43.552 241.483,44.552 241,45.5C 239.989,44.6634 238.822,44.33 237.5,44.5C 237.813,47.2469 237.48,49.9135 236.5,52.5C 235.833,49.3583 235.166,46.3583 234.5,43.5 Z"/></g>
<g><path style="opacity:1" fill="#30368c" d="M 16.5,55.5 C 14.7328,53.0616 13.3994,50.395 12.5,47.5C 12.369,46.7611 12.5357,46.0944 13,45.5C 15.7114,47.7539 17.5447,50.5872 18.5,54C 18.1639,55.0299 17.4972,55.5299 16.5,55.5 Z"/></g>
<g><path style="opacity:1" fill="#9394c2" d="M 102.5,42.5 C 105.247,42.1866 107.914,42.52 110.5,43.5C 109.923,45.1056 109.59,46.7722 109.5,48.5C 110.038,50.6522 110.538,52.6522 111,54.5C 107.435,52.9465 104.101,53.2799 101,55.5C 101.677,52.6125 102.51,49.6125 103.5,46.5C 103.154,45.1508 102.821,43.8175 102.5,42.5 Z"/></g>
<g><path style="opacity:1" fill="#f3f4f8" d="M 104.5,44.5 C 105.833,44.5 107.167,44.5 108.5,44.5C 108.5,46.8333 108.5,49.1667 108.5,51.5C 106.712,51.7852 105.045,51.4519 103.5,50.5C 104.348,48.5914 104.682,46.5914 104.5,44.5 Z"/></g>
<g><path style="opacity:1" fill="#6a70ad" d="M 162.5,44.5 C 163.507,46.3609 163.84,49.0275 163.5,52.5C 162.566,51.4324 162.232,50.099 162.5,48.5C 160.833,48.5 159.167,48.5 157.5,48.5C 156.742,53.7517 156.075,53.585 155.5,48C 156.075,42.415 156.742,42.2483 157.5,47.5C 159.167,47.5 160.833,47.5 162.5,47.5C 162.5,46.5 162.5,45.5 162.5,44.5 Z"/></g>
<g><path style="opacity:1" fill="#9da2c9" d="M 173.5,44.5 C 174.473,46.9479 174.806,49.6146 174.5,52.5C 173.734,50.3157 173.067,47.9823 172.5,45.5C 172.624,44.8933 172.957,44.56 173.5,44.5 Z"/></g>
<g><path style="opacity:1" fill="#b2b5d5" d="M 174.5,43.5 C 180.645,42.5098 186.978,42.1765 193.5,42.5C 193.649,43.552 193.483,44.552 193,45.5C 191.644,44.6198 190.144,44.2865 188.5,44.5C 187.493,46.3609 187.16,49.0275 187.5,52.5C 186.681,49.6946 186.181,46.6946 186,43.5C 185.667,44.1667 185.333,44.8333 185,45.5C 184.329,44.7476 183.496,44.4142 182.5,44.5C 181.833,43.1667 181.167,43.1667 180.5,44.5C 178.766,45.562 177.099,45.562 175.5,44.5C 175.5,43.8333 175.167,43.5 174.5,43.5 Z"/></g>
<g><path style="opacity:1" fill="#6064a6" d="M 114.5,42.5 C 120.555,42.0522 122.721,44.7189 121,50.5C 121.334,46.8946 119.834,44.5612 116.5,43.5C 112.979,45.9442 112.645,48.7776 115.5,52C 114.551,52.6172 113.718,52.4506 113,51.5C 110.788,48.0213 111.288,45.0213 114.5,42.5 Z"/></g>
<g><path style="opacity:1" fill="#5d64a6" d="M 135.5,44.5 C 135.5,44.8333 135.5,45.1667 135.5,45.5C 135.054,48.0101 135.72,50.0101 137.5,51.5C 137.5,52.1667 137.167,52.5 136.5,52.5C 132.93,50.2242 132.597,47.5575 135.5,44.5 Z"/></g>
<g><path style="opacity:1" fill="#6064a7" d="M 226.5,42.5 C 232.555,42.0522 234.721,44.7189 233,50.5C 233.334,46.8946 231.834,44.5612 228.5,43.5C 224.979,45.9442 224.645,48.7776 227.5,52C 226.551,52.6172 225.718,52.4506 225,51.5C 222.788,48.0213 223.288,45.0213 226.5,42.5 Z"/></g>
<g><path style="opacity:1" fill="#6569a9" d="M 245.5,43.5 C 248.102,42.0313 250.269,42.698 252,45.5C 252.774,47.403 252.44,49.0696 251,50.5C 251.5,46.1795 249.667,43.8462 245.5,43.5 Z"/></g>
<g><path style="opacity:1" fill="#a2a3cb" d="M 209.5,47.5 C 210.234,48.7079 210.567,50.0413 210.5,51.5C 209.365,53.0878 208.031,53.4212 206.5,52.5C 205.752,49.5027 205.085,46.5027 204.5,43.5C 205.723,42.3861 207.056,42.2195 208.5,43C 207.257,44.816 207.59,46.316 209.5,47.5 Z"/></g>
<g><path style="opacity:1" fill="#3c4092" d="M 209.5,47.5 C 210.586,47.62 211.253,48.2867 211.5,49.5C 211.457,50.4164 211.124,51.0831 210.5,51.5C 210.567,50.0413 210.234,48.7079 209.5,47.5 Z"/></g>
<g><path style="opacity:1" fill="#464997" d="M 245.5,43.5 C 242.899,46.3371 242.899,49.1705 245.5,52C 245.167,52.1667 244.833,52.3333 244.5,52.5C 242.976,51.4729 242.309,49.9729 242.5,48C 242.05,45.3743 243.05,43.8743 245.5,43.5 Z"/></g>
<g><path style="opacity:1" fill="#d3d5e7" d="M 24.5,29.5 C 24.8333,29.5 25.1667,29.5 25.5,29.5C 25.369,30.2389 25.5357,30.9056 26,31.5C 26.6708,30.7476 27.5041,30.4142 28.5,30.5C 30.4241,30.7107 30.7574,31.3774 29.5,32.5C 26.942,31.8468 24.7753,32.8468 23,35.5C 20.632,38.5976 21.132,39.5976 24.5,38.5C 24.7678,40.099 24.4345,41.4324 23.5,42.5C 23.631,41.7611 23.4643,41.0944 23,40.5C 20.5803,42.8391 19.0803,45.6724 18.5,49C 19.9087,53.873 21.4087,58.7064 23,63.5C 23.4966,61.1902 23.6633,58.8568 23.5,56.5C 24.1581,58.6391 25.1581,60.6391 26.5,62.5C 25.9569,62.56 25.6236,62.8933 25.5,63.5C 26.7663,67.0453 28.7663,70.0453 31.5,72.5C 31.1667,72.5 30.8333,72.5 30.5,72.5C 27.8369,71.2479 25.1702,70.2479 22.5,69.5C 22.5,69.1667 22.5,68.8333 22.5,68.5C 24.6116,70.1616 25.7783,69.8282 26,67.5C 23.3629,65.109 20.5296,63.109 17.5,61.5C 17.5,61.1667 17.5,60.8333 17.5,60.5C 18.3764,60.6309 19.0431,60.2975 19.5,59.5C 18.4756,58.1482 17.4756,56.8149 16.5,55.5C 17.4972,55.5299 18.1639,55.0299 18.5,54C 17.5447,50.5872 15.7114,47.7539 13,45.5C 12.5357,46.0944 12.369,46.7611 12.5,47.5C 11.1148,46.0527 11.4482,45.0527 13.5,44.5C 14.7942,45.2899 15.9609,46.2899 17,47.5C 17.7185,44.5929 17.2185,41.9262 15.5,39.5C 15.8333,39.5 16.1667,39.5 16.5,39.5C 17.2216,39.9175 17.7216,40.5842 18,41.5C 19.4051,38.3812 19.9051,35.0479 19.5,31.5C 19.8333,31.5 20.1667,31.5 20.5,31.5C 20.272,33.3547 20.9387,34.1881 22.5,34C 23.0989,32.3775 23.7656,30.8775 24.5,29.5 Z"/></g>
<g><path style="opacity:1" fill="#acb0d1" d="M 44.5,40.5 C 45.8734,40.3433 47.2068,40.51 48.5,41C 47.3832,44.0731 47.2165,47.2397 48,50.5C 48.8926,49.9186 49.8926,49.5852 51,49.5C 54.1825,51.6165 57.6825,52.6165 61.5,52.5C 61.7428,49.1174 61.0761,45.9508 59.5,43C 60,42.5 60.5,42 61,41.5C 63.5355,46.607 65.3688,51.9403 66.5,57.5C 60.7676,57.7168 55.101,57.2168 49.5,56C 49.8333,55.6667 50.1667,55.3333 50.5,55C 48.7756,54.5518 48.109,53.7185 48.5,52.5C 45.1667,52.5 41.8333,52.5 38.5,52.5C 38.9125,53.7824 38.2458,54.7824 36.5,55.5C 36.8417,56.3382 37.5084,56.6716 38.5,56.5C 34.7016,57.4834 30.7016,57.8168 26.5,57.5C 27.6455,51.896 29.4788,46.5627 32,41.5C 32.1667,42.1667 32.3333,42.8333 32.5,43.5C 31.6978,46.4486 31.3645,49.4486 31.5,52.5C 34.3105,50.932 37.3105,49.5987 40.5,48.5C 42.0709,49.3094 43.7376,49.6427 45.5,49.5C 45.7359,46.3915 45.4025,43.3915 44.5,40.5 Z"/></g>
<g><path style="opacity:1" fill="#979bc6" d="M 188.5,52.5 C 188.5,52.1667 188.5,51.8333 188.5,51.5C 190.674,51.0798 192.674,51.0798 194.5,51.5C 195.783,48.6281 195.783,45.7947 194.5,43C 197.5,42.3333 200.5,42.3333 203.5,43C 202.87,46.1292 202.204,49.2959 201.5,52.5C 200.52,49.9135 200.187,47.2469 200.5,44.5C 199.167,44.5 197.833,44.5 196.5,44.5C 198.588,52.3518 195.922,55.0185 188.5,52.5 Z"/></g>
<g><path style="opacity:1" fill="#2c338a" d="M 71.5,51.5 C 72.6378,54.3035 72.8045,57.3035 72,60.5C 71.5831,61.756 70.7498,62.4226 69.5,62.5C 69.1113,58.5863 69.7779,54.9196 71.5,51.5 Z"/></g>
<g><path style="opacity:1" fill="#9e9ec8" d="M 136.5,52.5 C 137.167,52.5 137.5,52.1667 137.5,51.5C 138.833,51.5 140.167,51.5 141.5,51.5C 141.808,49.076 141.474,46.7427 140.5,44.5C 138.572,43.2878 136.905,43.6211 135.5,45.5C 135.5,45.1667 135.5,44.8333 135.5,44.5C 137.799,41.9979 140.299,41.9979 143,44.5C 144.667,50.9604 142.501,53.6271 136.5,52.5 Z"/></g>
<g><path style="opacity:1" fill="#aeadd1" d="M 145.5,42.5 C 148.167,42.5 150.833,42.5 153.5,42.5C 153.5,46.1667 153.5,49.8333 153.5,53.5C 152.127,53.6567 150.793,53.49 149.5,53C 150.444,50.2809 150.777,47.4475 150.5,44.5C 149.5,44.5 148.5,44.5 147.5,44.5C 147.938,47.8934 147.105,50.8934 145,53.5C 145.078,51.0052 145.578,48.5052 146.5,46C 146.011,44.8615 145.678,43.6948 145.5,42.5 Z"/></g>
<g><path style="opacity:1" fill="#7e84b8" d="M 29.5,49.5 C 30.4345,50.5676 30.7678,51.901 30.5,53.5C 36.824,53.4468 36.9907,54.1135 31,55.5C 30.1667,55.1667 29.3333,54.8333 28.5,54.5C 29.3094,52.9291 29.6427,51.2624 29.5,49.5 Z"/></g>
<g><path style="opacity:1" fill="#33398d" d="M 16.5,55.5 C 17.4756,56.8149 18.4756,58.1482 19.5,59.5C 19.0431,60.2975 18.3764,60.6309 17.5,60.5C 13.7875,59.1599 11.7875,56.8266 11.5,53.5C 13.0754,54.4565 14.742,55.1231 16.5,55.5 Z"/></g>
<g><path style="opacity:1" fill="#31378c" d="M 76.5,60.5 C 74.6262,62.0948 73.7929,61.7615 74,59.5C 75.7297,57.5981 77.563,55.9314 79.5,54.5C 80.8474,53.9717 82.1807,53.805 83.5,54C 81.9501,57.0513 79.6168,59.218 76.5,60.5 Z"/></g>
<g><path style="opacity:1" fill="#6a6fac" d="M 38.5,56.5 C 37.5084,56.6716 36.8417,56.3382 36.5,55.5C 39.214,55.25 41.8806,55.0833 44.5,55C 44.8333,55.3333 45.1667,55.6667 45.5,56C 43.1902,56.4966 40.8568,56.6633 38.5,56.5 Z"/></g>
<g><path style="opacity:1" fill="#696dac" d="M 161.5,60.5 C 163.5,60.5 165.5,60.5 167.5,60.5C 167.292,62.9201 167.626,65.2534 168.5,67.5C 168.192,68.3081 167.692,68.9747 167,69.5C 166.51,68.2068 166.343,66.8734 166.5,65.5C 165.448,65.6495 164.448,65.4828 163.5,65C 164.91,64.6322 165.91,63.7989 166.5,62.5C 164.994,61.2528 163.494,61.2528 162,62.5C 161.536,61.9056 161.369,61.2389 161.5,60.5 Z"/></g>
<g><path style="opacity:1" fill="#53559e" d="M 139.5,69.5 C 138.432,70.4345 137.099,70.7678 135.5,70.5C 135.784,67.2234 135.451,64.0567 134.5,61C 136.902,60.1859 139.235,60.3526 141.5,61.5C 140.113,61.8072 138.446,61.8072 136.5,61.5C 136.5,62.5 136.5,63.5 136.5,64.5C 139.261,63.9147 140.927,64.9147 141.5,67.5C 141.253,68.7133 140.586,69.38 139.5,69.5 Z"/></g>
<g><path style="opacity:1" fill="#424695" d="M 185.5,64.5 C 185.5,64.8333 185.5,65.1667 185.5,65.5C 184.5,65.5 183.5,65.5 182.5,65.5C 182.657,66.8734 182.49,68.2068 182,69.5C 181.782,66.5738 181.282,63.7405 180.5,61C 182.5,60.3333 184.5,60.3333 186.5,61C 187.8,62.5788 187.466,63.7455 185.5,64.5 Z"/></g>
<g><path style="opacity:1" fill="#f1f1f7" d="M 185.5,64.5 C 184.5,64.5 183.5,64.5 182.5,64.5C 182.5,63.5 182.5,62.5 182.5,61.5C 183.5,61.5 184.5,61.5 185.5,61.5C 185.5,62.5 185.5,63.5 185.5,64.5 Z"/></g>
<g><path style="opacity:1" fill="#30358b" d="M 201.5,64.5 C 201.5,64.8333 201.5,65.1667 201.5,65.5C 201.657,66.8734 201.49,68.2068 201,69.5C 200.782,66.5738 200.282,63.7405 199.5,61C 200.5,60.3333 201.5,60.3333 202.5,61C 201.663,62.0113 201.33,63.1779 201.5,64.5 Z"/></g>
<g><path style="opacity:1" fill="#272f88" d="M 206.5,61.5 C 206.56,60.9569 206.893,60.6236 207.5,60.5C 208.484,63.4281 208.817,66.4281 208.5,69.5C 207.833,66.8333 207.167,64.1667 206.5,61.5 Z"/></g>
<g><path style="opacity:1" fill="#333a8e" d="M 17.5,61.5 C 20.5296,63.109 23.3629,65.109 26,67.5C 25.7783,69.8282 24.6116,70.1616 22.5,68.5C 19.9248,67.4322 17.7581,65.7655 16,63.5C 15.4719,62.184 15.9719,61.5173 17.5,61.5 Z"/></g>
<g><path style="opacity:1" fill="#363c8f" d="M 67.5,66.5 C 66.5,66.8333 65.8333,67.5 65.5,68.5C 64.5213,70.1454 63.188,71.4787 61.5,72.5C 60.7025,72.0431 60.3691,71.3764 60.5,70.5C 62.0976,67.5046 64.0976,64.6713 66.5,62C 67.3317,61.3123 67.9984,61.479 68.5,62.5C 67.7542,63.7362 67.4208,65.0695 67.5,66.5 Z"/></g>
<g><path style="opacity:1" fill="#30368c" d="M 76.5,61.5 C 77.2389,61.369 77.9056,61.5357 78.5,62C 76.5563,64.6295 74.223,66.7961 71.5,68.5C 68.5056,70.0659 67.5056,69.3992 68.5,66.5C 69.1667,66.5 69.5,66.1667 69.5,65.5C 71.8754,64.0983 74.2088,62.765 76.5,61.5 Z"/></g>
<g><path style="opacity:1" fill="#656baa" d="M 211.5,60.5 C 213.154,62.5597 214.154,65.0597 214.5,68C 213.953,68.9246 213.287,69.7579 212.5,70.5C 211.513,67.2317 211.18,63.8984 211.5,60.5 Z"/></g>
<g><path style="opacity:1" fill="#6e72ae" d="M 218.5,60.5 C 220.094,63.0609 221.094,66.0609 221.5,69.5C 222.833,68.8333 223.833,67.8333 224.5,66.5C 221.422,61.2187 223.089,59.2187 229.5,60.5C 229.216,63.7766 229.549,66.9433 230.5,70C 229.167,70.6667 227.833,70.6667 226.5,70C 227.444,67.2809 227.777,64.4475 227.5,61.5C 226.5,61.5 225.5,61.5 224.5,61.5C 227.354,68.1668 225.021,71.0001 217.5,70C 218.304,66.7248 218.637,63.5581 218.5,60.5 Z"/></g>
<g><path style="opacity:1" fill="#2f368b" d="M 26.5,62.5 C 30.4407,65.0417 32.1073,68.375 31.5,72.5C 28.7663,70.0453 26.7663,67.0453 25.5,63.5C 25.6236,62.8933 25.9569,62.56 26.5,62.5 Z"/></g>
<g><path style="opacity:1" fill="#656aaa" d="M 125.5,61.5 C 131.335,59.1608 133.835,61.1608 133,67.5C 132.692,68.3081 132.192,68.9747 131.5,69.5C 131.448,67.4301 131.281,65.0968 131,62.5C 129.301,61.5939 127.467,61.2606 125.5,61.5 Z"/></g>
<g><path style="opacity:1" fill="#7077b1" d="M 143.5,60.5 C 145.792,60.2436 147.959,60.5769 150,61.5C 150.638,64.9301 149.138,66.2634 145.5,65.5C 145.286,67.1439 145.62,68.6439 146.5,70C 145.167,70.6667 143.833,70.6667 142.5,70C 143.451,66.9433 143.784,63.7766 143.5,60.5 Z"/></g>
<g><path style="opacity:1" fill="#fdfdfe" d="M 145.5,61.5 C 146.5,61.5 147.5,61.5 148.5,61.5C 148.5,62.5 148.5,63.5 148.5,64.5C 147.5,64.5 146.5,64.5 145.5,64.5C 145.5,63.5 145.5,62.5 145.5,61.5 Z"/></g>
<g><path style="opacity:1" fill="#484c98" d="M 169.5,62.5 C 169.519,67.0232 171.853,69.5232 176.5,70C 170.666,70.9964 168.333,68.4964 169.5,62.5 Z"/></g>
<g><path style="opacity:1" fill="#ebecf4" d="M 139.5,69.5 C 138.5,69.5 137.5,69.5 136.5,69.5C 136.5,68.1667 136.5,66.8333 136.5,65.5C 137.5,65.5 138.5,65.5 139.5,65.5C 139.5,66.8333 139.5,68.1667 139.5,69.5 Z"/></g>
<g><path style="opacity:1" fill="#6c6fad" d="M 155.5,60.5 C 157.438,63.4449 159.105,66.6116 160.5,70C 159.552,70.4828 158.552,70.6495 157.5,70.5C 157.5,69.5 157.5,68.5 157.5,67.5C 156.167,67.5 154.833,67.5 153.5,67.5C 153.719,68.675 153.386,69.675 152.5,70.5C 151.959,68.477 152.459,66.477 154,64.5C 154.743,66.6447 155.576,66.8114 156.5,65C 154.608,63.6873 154.274,62.1873 155.5,60.5 Z"/></g>
<g><path style="opacity:1" fill="#5a60a4" d="M 171.5,61.5 C 177.335,59.1608 179.835,61.1608 179,67.5C 178.667,67.8333 178.333,68.1667 178,68.5C 178.921,63.1023 176.754,60.769 171.5,61.5 Z"/></g>
<g><path style="opacity:1" fill="#a9acd0" d="M 192.5,62.5 C 193.931,63.7804 194.598,65.4471 194.5,67.5C 193.167,67.5 191.833,67.5 190.5,67.5C 190.796,65.597 191.463,63.9303 192.5,62.5 Z"/></g>
<g><path style="opacity:1" fill="#51569e" d="M 192.5,62.5 C 192.56,61.9569 192.893,61.6236 193.5,61.5C 195.969,64.2358 196.969,67.2358 196.5,70.5C 195.824,69.3984 195.158,68.3984 194.5,67.5C 194.598,65.4471 193.931,63.7804 192.5,62.5 Z"/></g>
<g><path style="opacity:1" fill="#464b98" d="M 125.5,61.5 C 124.343,64.5459 124.343,67.2125 125.5,69.5C 124.009,68.6519 123.342,67.3186 123.5,65.5C 123.34,63.6455 124.007,62.3121 125.5,61.5 Z"/></g>
<g><path style="opacity:1" fill="#5f64a7" d="M 185.5,65.5 C 187.97,66.3603 188.137,67.6936 186,69.5C 185.51,68.2068 185.343,66.8734 185.5,65.5 Z"/></g>
<g><path style="opacity:1" fill="#989dc7" d="M 206.5,61.5 C 207.167,64.1667 207.833,66.8333 208.5,69.5C 209.239,69.369 209.906,69.5357 210.5,70C 209.207,70.49 207.873,70.6567 206.5,70.5C 206.5,68.8333 206.5,67.1667 206.5,65.5C 204.833,65.5 203.167,65.5 201.5,65.5C 201.5,65.1667 201.5,64.8333 201.5,64.5C 203.167,64.5 204.833,64.5 206.5,64.5C 206.5,63.5 206.5,62.5 206.5,61.5 Z"/></g>
<g><path style="opacity:1" fill="#9fa3ca" d="M 67.5,66.5 C 67.8333,66.5 68.1667,66.5 68.5,66.5C 67.5056,69.3992 68.5056,70.0659 71.5,68.5C 72.5676,69.4345 73.901,69.7678 75.5,69.5C 75.5,69.8333 75.5,70.1667 75.5,70.5C 72.3915,70.2641 69.3915,70.5975 66.5,71.5C 66.7373,70.209 66.404,69.209 65.5,68.5C 65.8333,67.5 66.5,66.8333 67.5,66.5 Z"/></g>
<g><path style="opacity:1" fill="#7b80b6" d="M 190.5,67.5 C 190.414,68.4959 190.748,69.3292 191.5,70C 187.956,70.6789 187.623,69.8455 190.5,67.5 Z"/></g>
<g><path style="opacity:1" fill="#32388d" d="M 22.5,69.5 C 25.1702,70.2479 27.8369,71.2479 30.5,72.5C 25.6239,74.1034 20.9573,73.4368 16.5,70.5C 18.396,69.5344 20.396,69.2011 22.5,69.5 Z"/></g>
<g><path style="opacity:1" fill="#dfe0ed" d="M 60.5,70.5 C 60.3691,71.3764 60.7025,72.0431 61.5,72.5C 63.188,71.4787 64.5213,70.1454 65.5,68.5C 66.404,69.209 66.7373,70.209 66.5,71.5C 65.2438,71.4614 64.2438,71.9614 63.5,73C 67.5935,73.7673 71.5935,73.434 75.5,72C 76.7383,71.31 76.7383,70.81 75.5,70.5C 75.5,70.1667 75.5,69.8333 75.5,69.5C 76.8333,69.5 77.5,70.1667 77.5,71.5C 76.4566,74.0562 74.7899,76.2228 72.5,78C 68.6912,81.2377 64.3579,83.4044 59.5,84.5C 59.5,83.5 59.5,82.5 59.5,81.5C 60.552,81.6495 61.552,81.4828 62.5,81C 61.3279,80.5814 60.3279,79.9147 59.5,79C 62.914,78.7031 66.2473,78.0365 69.5,77C 64.9174,75.8553 60.2508,75.1887 55.5,75C 56.7577,73.2591 57.7577,71.4258 58.5,69.5C 59.3274,68.5613 59.9941,68.8946 60.5,70.5 Z"/></g>
<g><path style="opacity:1" fill="#283088" d="M 75.5,70.5 C 76.7383,70.81 76.7383,71.31 75.5,72C 71.5935,73.434 67.5935,73.7673 63.5,73C 64.2438,71.9614 65.2438,71.4614 66.5,71.5C 69.3915,70.5975 72.3915,70.2641 75.5,70.5 Z"/></g>
<g><path style="opacity:1" fill="#868bbc" d="M 26.5,77.5 C 29.1873,77.3359 31.854,77.5026 34.5,78C 33.9558,78.7172 33.2891,79.2172 32.5,79.5C 30.5,78.8333 28.5,78.1667 26.5,77.5 Z"/></g>
<g><path style="opacity:1" fill="#767bb3" d="M 49.5,83.5 C 49.0146,78.8415 50.848,77.5081 55,79.5C 55.8104,84.2718 53.9771,85.6052 49.5,83.5 Z"/></g>
<g><path style="opacity:1" fill="#222c85" d="M 51.5,79.5 C 54.8606,80.2032 55.1939,81.5365 52.5,83.5C 50.3576,82.5629 50.0243,81.2296 51.5,79.5 Z"/></g>
<g><path style="opacity:1" fill="#757bb3" d="M 49.5,83.5 C 49.631,84.2389 49.4643,84.9056 49,85.5C 46.7683,84.8126 44.6016,84.4793 42.5,84.5C 40.2334,82.3351 40.2334,80.3351 42.5,78.5C 43.7955,85.0414 44.4622,85.0414 44.5,78.5C 45.8333,78.5 47.1667,78.5 48.5,78.5C 48.2155,80.4147 48.5489,82.0813 49.5,83.5 Z"/></g>
<g><path style="opacity:1" fill="#1e2884" d="M 45.5,79.5 C 46.5862,79.62 47.2528,80.2867 47.5,81.5C 47.1667,82.1667 46.8333,82.8333 46.5,83.5C 45.5713,82.3112 45.238,80.9778 45.5,79.5 Z"/></g>
</svg>
